<svg width="115" height="28" viewBox="0 0 115 28" fill="none" xmlns="http://www.w3.org/2000/svg">
<rect x="0.000488281" y="13" width="32" height="1.54334" rx="0.771672" fill="#E3B873"/>
<rect x="83" y="13" width="32" height="1.54334" rx="0.771672" fill="#E3B873"/>
<path d="M73.3775 8.97329L49.2569 0.0370698C48.9484 -0.0769362 48.6057 0.0808222 48.4919 0.389589C48.4916 0.389839 48.4916 0.390089 48.4914 0.390339L45.8213 7.65847C45.7077 7.96724 45.866 8.30976 46.1748 8.42326H46.1753L48.9712 9.44982L48.3551 11.1282C48.2419 11.4369 48.4001 11.7789 48.7089 11.8924L54.3017 13.9458L53.8907 15.0646C53.5172 16.0667 53.8657 17.1947 54.7397 17.811V20.8512H46.7238C46.3358 19.9641 45.5417 19.3201 44.5934 19.1236V17.8725C44.5934 17.5435 44.3269 17.2767 43.9977 17.2767H41.5958C41.2668 17.2767 41 17.5435 41 17.8725V27.4043C41 27.7335 41.2668 28.0001 41.5958 28.0001H43.9977C44.3269 28.0001 44.5934 27.7335 44.5934 27.4043V26.1535C45.5417 25.9567 46.3358 25.3129 46.7238 24.4256H54.7397V25.0214C54.7397 26.0084 55.5398 26.8087 56.5268 26.8087C57.5139 26.8087 58.3142 26.0084 58.3142 25.0214V18.4218C58.8557 18.1533 59.274 17.6875 59.4825 17.12L59.8935 16.0012L64.9268 17.848C64.9925 17.8723 65.0618 17.8845 65.1318 17.8845C65.3815 17.8845 65.6051 17.7288 65.6913 17.4942L65.9146 16.886C67.8532 17.2507 69.7203 15.9749 70.0848 14.0366C70.2195 13.3203 70.132 12.58 69.834 11.915L73.4455 10.0606C73.7382 9.91059 73.854 9.55157 73.704 9.25881C73.636 9.1258 73.5205 9.0233 73.3805 8.97154L73.3775 8.97329ZM55.931 18.3538L56.4243 18.5326C56.6488 18.6131 56.8843 18.6593 57.1226 18.6696V20.8512H55.931V18.3538ZM43.4021 26.8087H42.1916V18.4683H43.4021V26.8087ZM45.785 23.2343C45.784 23.9913 45.307 24.6661 44.5934 24.9196V20.3574C45.307 20.6107 45.784 21.2854 45.785 22.0427V23.2343ZM46.9951 22.0427H57.1226V23.2343H46.9951V22.0427ZM56.5268 25.6172C56.1978 25.6172 55.931 25.3504 55.931 25.0214V24.4256H57.1226V25.0214C57.1226 25.3504 56.8558 25.6172 56.5268 25.6172ZM58.7752 15.5909L58.3642 16.7097C58.1372 17.3267 57.4529 17.6433 56.8353 17.4167L55.7148 17.0062C55.0972 16.7795 54.7802 16.0949 55.007 15.4771C55.007 15.4771 55.007 15.4771 55.007 15.4769L55.4183 14.3588L58.4379 15.4674L58.7752 15.5909ZM64.7785 16.5262L49.6787 10.9814L50.09 9.86259L59.0375 13.1483C59.2492 13.2253 59.4867 13.177 59.6515 13.023L61.3233 11.4492L66.0106 13.1708L64.7785 16.5262ZM68.8065 14.1978C68.429 15.2156 67.4137 15.8517 66.3333 15.7469L67.2539 13.2393L68.7575 12.465C68.9927 13.0155 69.0102 13.635 68.8065 14.1978ZM66.7956 12.138C66.7641 12.1407 66.7329 12.1462 66.7021 12.1545L61.3906 10.2041C61.1788 10.1264 60.9413 10.1746 60.7768 10.3291L59.103 11.9032L47.1451 7.51197L49.4037 1.36214L71.6939 9.62033L66.7956 12.138Z" fill="#E3B873"/>
<path d="M52.6556 7.91113L52.1301 9.33106M54.9454 8.75116L54.4199 10.1711M57.1674 9.57764L56.6419 10.9976" stroke="#E3B873" stroke-linecap="round"/>
</svg>
